<mxfile host="app.diagrams.net" modified="2022-07-28T22:21:57.785Z" agent="5.0 (Macintosh)" etag="XI0VyF7aBWnJh_XAPguM" version="19.0.3" type="github">
  <diagram id="uun_jjjuWUNww76_Udy4" name="Page-1">
    <mxGraphModel dx="617" dy="470" grid="1" gridSize="10" guides="1" tooltips="1" connect="1" arrows="1" fold="1" page="1" pageScale="1" pageWidth="827" pageHeight="1169" math="0" shadow="0">
      <root>
        <mxCell id="0" />
        <mxCell id="1" parent="0" />
        <mxCell id="2KaCRzUMMeswWlVjjDwV-10" value="Hypercore-Stack" style="swimlane;" vertex="1" parent="1">
          <mxGeometry x="60" y="60" width="520" height="300" as="geometry" />
        </mxCell>
        <mxCell id="2KaCRzUMMeswWlVjjDwV-4" value="Hypercore" style="whiteSpace=wrap;html=1;align=center;" vertex="1" parent="2KaCRzUMMeswWlVjjDwV-10">
          <mxGeometry x="130" y="50" width="100" height="40" as="geometry" />
        </mxCell>
        <mxCell id="2KaCRzUMMeswWlVjjDwV-9" value="Entity" style="whiteSpace=wrap;html=1;align=center;" vertex="1" parent="2KaCRzUMMeswWlVjjDwV-10">
          <mxGeometry x="230" y="170" width="100" height="40" as="geometry" />
        </mxCell>
        <mxCell id="2KaCRzUMMeswWlVjjDwV-5" value="Hypercore" style="whiteSpace=wrap;html=1;align=center;" vertex="1" parent="2KaCRzUMMeswWlVjjDwV-10">
          <mxGeometry x="130" y="170" width="100" height="40" as="geometry" />
        </mxCell>
        <mxCell id="2KaCRzUMMeswWlVjjDwV-8" value="IPFS" style="whiteSpace=wrap;html=1;align=center;" vertex="1" parent="2KaCRzUMMeswWlVjjDwV-10">
          <mxGeometry x="230" y="50" width="100" height="40" as="geometry" />
        </mxCell>
        <mxCell id="2KaCRzUMMeswWlVjjDwV-11" value="Libp2p" style="whiteSpace=wrap;html=1;align=center;" vertex="1" parent="2KaCRzUMMeswWlVjjDwV-10">
          <mxGeometry x="230" y="210" width="100" height="40" as="geometry" />
        </mxCell>
        <mxCell id="2KaCRzUMMeswWlVjjDwV-6" value="Hyperswarm" style="whiteSpace=wrap;html=1;align=center;" vertex="1" parent="2KaCRzUMMeswWlVjjDwV-10">
          <mxGeometry x="130" y="210" width="100" height="40" as="geometry" />
        </mxCell>
        <mxCell id="2KaCRzUMMeswWlVjjDwV-12" value="Protocol" style="whiteSpace=wrap;html=1;align=center;" vertex="1" parent="2KaCRzUMMeswWlVjjDwV-10">
          <mxGeometry x="30" y="50" width="100" height="40" as="geometry" />
        </mxCell>
        <mxCell id="2KaCRzUMMeswWlVjjDwV-13" value="Low-level Data Structures" style="whiteSpace=wrap;html=1;align=center;" vertex="1" parent="2KaCRzUMMeswWlVjjDwV-10">
          <mxGeometry x="30" y="170" width="100" height="40" as="geometry" />
        </mxCell>
        <mxCell id="2KaCRzUMMeswWlVjjDwV-14" value="Networking" style="whiteSpace=wrap;html=1;align=center;" vertex="1" parent="2KaCRzUMMeswWlVjjDwV-10">
          <mxGeometry x="30" y="210" width="100" height="40" as="geometry" />
        </mxCell>
      </root>
    </mxGraphModel>
  </diagram>
</mxfile>
